<?xml version="1.0" encoding="utf-8"?>
<!-- Generator: Adobe Illustrator 25.0.0, SVG Export Plug-In . SVG Version: 6.00 Build 0)  -->
<svg version="1.1" id="Layer_1" xmlns="http://www.w3.org/2000/svg" xmlns:xlink="http://www.w3.org/1999/xlink" x="0px" y="0px"
	 viewBox="0 0 595.28 627.89" style="enable-background:new 0 0 595.28 627.89;" xml:space="preserve">
<style type="text/css">
	.st0{fill:#1F77BD;}
</style>
<g>
	<g>
		<g>
			<path d="M164.26,429.29c-3.47-1.71-7.97-3.5-13.52-5.37c-5.55-1.79-9.6-3.47-12.24-5.03c-2.6-1.53-3.89-3.71-3.89-6.47
				c0-2.53,0.76-4.47,2.32-5.81c1.55-1.34,3.58-2,6.1-2c2.95,0,5.34,0.79,7.24,2.37c1.87,1.61,2.89,3.79,3.05,6.55h22.63
				c-0.42-8.08-3.53-14.37-9.31-18.89c-5.79-4.53-13.39-6.79-22.87-6.79c-9.29,0-16.84,2.26-22.63,6.79s-8.66,10.79-8.66,18.76
				c0,5.39,1.26,9.74,3.79,13.1c2.53,3.34,5.53,5.87,9.03,7.58c3.53,1.71,8.05,3.42,13.58,5.13c3.79,1.11,6.71,2.13,8.79,3.03
				c8.05-1.61,16.73-3.26,25.94-4.95c-0.11-0.18-0.24-0.37-0.37-0.53C170.71,433.5,167.71,431,164.26,429.29z M175.65,441.08
				c-7.76,1.21-15.63,2.5-23.58,3.82c0.32,0.24,0.63,0.5,0.92,0.79c1.42,1.39,2.16,3.13,2.16,5.26c0,2.53-0.92,4.5-2.71,5.92
				c-1.79,1.45-4.24,2.16-7.34,2.16c-3,0-5.45-0.84-7.31-2.5c-1.89-1.68-3-4.1-3.32-7.29h-22.26c0,0.11,0,0.18,0.03,0.29
				c0,0.74,0.05,1.45,0.16,2.13c0.47,4.6,2,8.6,4.53,12c2.97,4,6.95,7.03,11.92,9.05c4.97,2.05,10.6,3.05,16.89,3.05
				c6.42,0,12.02-1.16,16.73-3.53c4.74-2.37,8.34-5.55,10.84-9.55c2.47-4,3.71-8.45,3.71-13.31
				C177.02,446.26,176.57,443.5,175.65,441.08z"/>
			<path d="M243.3,389.06v33.63h-32.52v-33.63h-20.92v45.28c22.1-3.95,46.97-8.03,74.36-12.08v-33.21H243.3z M189.86,438.84v36.07
				h20.92v-35.34h32.52v35.34h20.92V428.1C240.49,431.29,215.67,434.84,189.86,438.84z"/>
			<path d="M328.92,389.06h-24.23l-10.47,28.97c7.03-0.97,14.18-1.92,21.47-2.84l1-3l0.92,2.74c6.5-0.82,13.08-1.63,19.79-2.45
				L328.92,389.06z M339.66,418.76c-6.53,0.74-13.18,1.5-19.97,2.32l7.63,22.52h-21.16l7.29-21.76c-7.08,0.84-14.26,1.74-21.58,2.66
				l-18.23,50.41h21.89l5.13-15.16h32.05l5.13,15.16h22.13L339.66,418.76z"/>
			<path d="M432.49,402.35c-2.37-4.13-5.92-7.37-10.71-9.74c-4.76-2.37-10.52-3.55-17.29-3.55h-35.1v19.73
				c6.87-0.74,13.84-1.47,20.92-2.18v-0.18h1.66c13.24-1.34,26.79-2.63,40.65-3.84C432.57,402.5,432.54,402.42,432.49,402.35z
				 M416.96,440.92c6.26-1.87,11.02-5.05,14.24-9.55c3.24-4.47,4.84-9.58,4.84-15.29c0-2.37-0.26-4.66-0.82-6.81
				c-7,0.58-14.29,1.21-21.84,1.92c0.92,1.61,1.37,3.5,1.37,5.76c0,3.42-0.95,6.08-2.87,7.95c-1.92,1.87-4.79,2.82-8.63,2.82h-12.95
				v-14.34c-6.79,0.68-13.76,1.39-20.92,2.16v59.39h20.92V442.5h5l17.87,32.42h23.6L416.96,440.92z"/>
			<path d="M449.12,389.06v12.13c6.89-0.55,13.87-1.1,20.92-1.63v-10.5H449.12z M498.64,389.06l-6.79,8.95
				c8.42-0.55,16.95-1.1,25.58-1.61l5.82-7.34H498.64z M489.96,431.13l21.66-27.37c-7.47,0.4-15.92,0.92-25.34,1.58l-16.23,21.39
				V406.5c-6.6,0.47-13.58,1-20.92,1.58v66.83h20.92V437l28.86,37.92h25.55L489.96,431.13z"/>
		</g>
	</g>
	<g>
		<g>
			<path class="st0" d="M216.38,178.94c-5.28-25.33-15.25-47.86-36.27-65.23c28.01-6.59,53.1-1.79,76.34,13.65
				c34.61-24.73,72.37-32.72,113.4-21.28c32.35,9.01,57.4,28.35,74.93,57c33.57,54.89,21.37,126.92-30.2,167.76
				c-18.51,14.66-39.52,23.55-62.93,26.7c-23.55,3.16-46.28-0.07-68.04-9.47c-21.65-9.35-39.38-23.78-53.34-42.87
				c-12.12-1-23.93,0.66-36.57,2.76c0.71-10.79,4.75-19.76,8.69-29.03c-6.46,2.07-11.36,6.28-15.83,11.12
				c-4.54,4.93-7.88,10.69-11.56,16.42c-0.84-7.52,0.66-14.7,2.71-21.82c2.06-7.13,4.98-13.93,8.09-20.76
				c-6.58,3.65-10.55,9.87-15.52,15.19c0.76-5.86,3.02-11.16,5.38-16.39c2.02-4.48,4.31-8.89,7.47-12.68
				c5.18-6.19,8.04-14.02,14-19.63c2.29-2.16,4.5-4.41,6.84-6.52c1.5-1.34,2.39-2.91,2.53-4.89
				C207.44,205.13,211.02,191.93,216.38,178.94z M410.44,203.14c11.65-5.47,23.78-7.33,36.37-7.07
				c-49.71-18.91-100.71-23.68-152.91-14.55c-1.46-1.33-2.13-2.86-2.93-4.26c-3.71-6.46-7.77-12.69-12.42-18.51
				c-14.4-18.02-31.59-32.14-54.24-38.57c-6.98-1.98-14.07-3.24-21.44-2.67c12.06,3.81,22.47,10.03,30.36,20.02
				c1.3-1.08,0.2-2.77,2.08-3.83c10.52,5.12,14.98,15.09,18.86,25.99c2.21-3.77,1.45-7.81,3.32-11.53
				c10.51,10.51,18.74,22.06,25.35,35.59c-13.76,3.48-26.79,7.44-39.19,12.28c-1.29-1.33-1.3-2.36-1.41-3.36
				c-0.61-5.39-1.67-10.7-3.04-15.95c-4.47-17.05-12.14-32.26-25.27-44.38c-4.96-4.58-10.36-8.2-13.7-9.03
				c20.84,21.87,27.97,49.02,30.55,78.1c-4.76,2.37-8.91,4.44-13.06,6.51c0.97,0.24,1.75-0.05,2.53-0.34
				c12.89-4.78,25.95-9.02,39.35-12.13c5.4-1.26,10.85-2.25,16.39-2.68c0.48-0.04,1.01,0.09,1.02,0.75
				c-0.31,1.17-2.04,0.75-2.38,2.19c14.72-1.67,29.15-4.95,43.96-2.69c-2.2,2.25-5.19,2.92-8.28,4.82c1.27,0.11,1.84,0.21,2.42,0.21
				c10.21-0.08,20.41-0.32,30.6,0.62c8.3,0.76,16.55,1.67,24.46,4.45c1.83,0.64,3.59,0.75,5.54,0.47
				c11.6-1.64,23.21-3.14,34.82-4.67c0.84-0.11,1.76-0.33,2.45,0.45C411.16,200.52,409.82,201.47,410.44,203.14z M197.8,304.78
				c4.18-1.21,8.22-2.83,12.42-3.95c18.45-4.92,37.17-4.98,55.91-2.55c16.76,2.17,33.51,3.97,50.43,4.14
				c11.36,0.12,22.67-0.55,33.96-1.68c3.13-0.31,6.24-0.87,9.34-1.4c2.92-0.5,5.92-0.69,8.72-1.8c-25,2.57-49.81,0.58-74.6-2
				c-0.02-0.35-0.04-0.69-0.06-1.04c3.75-0.67,7.5-1.34,11.26-2.01c-19.99-3.74-40.06-3.52-60.67-2.71
				c1.04-1.76,2.29-1.75,3.24-2.23c0.98-0.5,2.18-0.56,3.41-1.8C230.96,286.31,212.83,291.16,197.8,304.78z M320.18,237.27
				c0.73-0.14,1.46-0.25,2.18-0.41c13.08-2.87,26.35-4.34,39.7-4.61c17.96-0.36,35.68,1.76,52.98,6.83c1.76,0.51,3.44,0.83,5.1-0.2
				c11.88-7.35,22.96-15.57,29.84-28.21c0.74-1.37,1.7-2.76,1.18-5.01c-10.44,2.54-19.56,7.14-28.3,13.62
				c2.19,0.57,3.96-0.67,5.6,0.44c-0.12,0.86-0.7,1.13-1.27,1.37c-6.49,2.77-12.98,5.51-19.46,8.3c-1.37,0.59-2.69,0.3-4.07,0.09
				c-19.38-3.04-38.82-3.92-58.29-0.9C336.52,229.95,327.97,232.46,320.18,237.27z M393.31,257.51c0.15,0.13,0.3,0.25,0.45,0.38
				c5.5-4.06,11-8.13,16.54-12.23c-0.44-0.46-0.58-0.75-0.78-0.8c-16.4-4.16-32.87-7.78-49.96-5.66
				c-7.48,0.93-14.56,3.09-20.21,8.47c-1.2,1.15-2.58,2.28-2.74,4.62c4.52-2.14,7.92-5.38,12.57-6.59c-1.65,2.2-3.3,4.4-4.95,6.61
				c4.64-1.41,8.01-4.8,12.47-6.37c0.69,2.29-1.5,3.65-1.12,5.78c3.57-1.53,5.79-5.02,10.12-6.56c-1,3.29-1.81,5.98-2.78,9.15
				c3.3-1.56,5.26-4.21,8.68-5.35c-0.48,2.97-2.75,4.68-3.07,7.44c4.07-1.25,6.95-4.52,10.88-5.64c0.68,1.95-1.46,3.07-0.84,4.92
				c3.45-1.46,5.98-4.44,10.17-5.66c-1.16,3.21-2.06,5.73-2.97,8.25c3.6-2.38,6.36-5.55,10.4-7.13
				C395.22,253.27,394.26,255.39,393.31,257.51z M308.9,212.18c-20.35-2.4-40.56-2.91-60.72,0.5c-16.36,2.76-31.74,8.04-45.36,17.75
				c-2.89,2.06-5.86,4.09-8.56,7.52c41.35-24.59,84.56-26.86,129.42-15.39c-6.91-3.97-14.44-6.35-22.04-8.57
				c0.08-0.27,0.15-0.55,0.23-0.82C304.21,212.84,306.55,212.51,308.9,212.18z M367.43,277.07c0.26,2.96,1.15,4.96,0.9,7.65
				c-2.79-2.76-4.08-6.1-6.67-8.86c-0.36,2.56,1.04,4.76-0.23,7.3c-2.47-2.03-3.88-4.83-6.4-6.33c-0.99,1.12,0.36,2.45-1.1,3.59
				c-2.07-1.98-4.19-4.01-6.32-6.05c-1.61,2.05,0.84,4-0.45,6.11c-1.81-2.11-3.39-3.96-5.19-6.06c-0.83,2.57,0.28,4.92-0.87,7.2
				c-2.69-1.6-3.38-4.83-5.87-6.29c-0.94,1.29,0.15,2.76-1.11,3.94c-3.36-2.19-5.53-5.74-8.88-8.64c0.69,2.99,2.31,5.11,2.76,8.52
				c-3.46-3.65-6.34-6.68-9.57-10.09c0.65,3.52,2.13,5.92,4.11,8.1c4.37,4.81,9.91,7.72,15.94,9.76c12.58,4.26,25.6,5.22,38.77,4.96
				c0.5-0.01,1-0.14,1.13-1.11C375,286.56,371.49,282.16,367.43,277.07z M321.65,241.08c-11.36,2.69-23.53,16.64-17.04,32.83
				c2.55,6.37,7.15,10.86,13.48,13.56c7.29,3.12,17.22,5.22,21.78,4.62c-2.94-0.99-5.96-1.9-8.9-3.01
				c-6.19-2.33-11.88-5.46-16.36-10.5c-5.69-6.39-6.55-15.71-2.01-22.76c0.21-0.32,0.54-0.52,0.8-0.4c1.29,0.7,0.35,2.31,1.69,3.03
				c4.38-7,11.22-10.92,18.31-14.61c-4.94,0.14-9.69,1.76-14.72,1.89C318.9,243.3,321.24,242.87,321.65,241.08z M259.29,265.42
				c1.09-14.4,3.75-22.58,7.67-24.1c0.79,1.39,0.29,2.98,0.8,4.91c1.66-7.93,3.7-15.27,8.1-21.79c-4.74,1.42-7.15,5.24-10.12,8.49
				c-0.62-0.35-1.07-0.56-1.45-0.84c-0.51-0.38-0.96-0.83-1.86-0.24C257.77,242.3,256.61,253.28,259.29,265.42z M260.41,225.27
				c-4.73,1.6-7.6,5.44-10.39,8.71c-1.55,0.02-2.02-1.48-3.22-0.95c-4.8,8.49-6.3,24.89-3.2,32.98c0.29-11.6,3.37-21.44,7.52-23.83
				c0.72,1.4,0.21,2.99,0.86,5.05C253.55,239.08,255.89,231.81,260.41,225.27z M234.4,235.14c-0.73,0.36-1.19,0.21-1.63-0.08
				c-0.51-0.33-0.95-0.85-2.18-0.47c-4.6,10.51-5.7,21.6-2.98,33.09c-0.11-8.83,1.83-17.04,7.02-24.79c1.46,1.9,0.78,3.65,1.39,5.62
				c0.9-4.32,1.96-8.17,3.36-11.91c1.41-3.78,3.59-7.18,6.12-10.93c-2.35,0.77-3.64,2.02-5.05,3.05
				C237.99,230.54,236.17,232.99,234.4,235.14z M359.97,212.36c-4.02-5.13-14.79-9.21-25.59-6.77c3.99,1.5,7.24,3.79,10.38,6.33
				C349.26,215.57,354.45,215.64,359.97,212.36z"/>
		</g>
	</g>
	<g>
		<path d="M221.24,526.93v-33.47h4.78v29.31h18.12v4.16H221.24z"/>
		<path d="M298.69,526.93l-3.68-8.37h-17.79l-3.68,8.37h-4.93l15.16-33.47h4.73l15.2,33.47H298.69z M278.9,514.74h14.44l-7.22-16.4
			L278.9,514.74z"/>
		<path d="M355.11,509.57c1.94,0.54,3.47,1.52,4.59,2.94c1.12,1.42,1.67,3.21,1.67,5.38c0,2.9-1.09,5.13-3.28,6.7
			c-2.18,1.56-5.36,2.34-9.54,2.34h-15.97v-33.47h15.01c3.82,0,6.78,0.76,8.87,2.29c2.09,1.53,3.13,3.65,3.13,6.36
			C359.6,505.62,358.1,508.11,355.11,509.57z M347.17,497.33h-9.8v10.71h9.8c2.45,0,4.34-0.45,5.67-1.36
			c1.32-0.91,1.99-2.24,1.99-3.99c0-1.75-0.66-3.08-1.99-3.99C351.51,497.79,349.63,497.33,347.17,497.33z M348.37,523.06
			c5.45,0,8.18-1.85,8.18-5.54c0-3.73-2.73-5.59-8.18-5.59h-11v11.14H348.37z"/>
		<path d="M396.13,522.77h21.56v4.16h-27.97v-3.25l21.04-26.06h-20.7v-4.16h27.01v3.25L396.13,522.77z"/>
	</g>
	<path d="M147.74,442.26c1.66,0.71,3.1,1.61,4.34,2.63c-8.5,1.39-17.08,2.84-25.76,4.34c-4.6,0.79-9.24,1.61-13.92,2.42
		c-13.66,2.42-27.52,4.95-41.57,7.58c1.58-0.42,15.95-4.16,41.42-9.71c0.47-0.08,0.92-0.18,1.42-0.29c9.76-2.1,21.13-4.47,34-7
		C147.68,442.23,147.71,442.26,147.74,442.26z"/>
</g>
</svg>
